HIERARCHY
ROOT Hips
{
  OFFSET 4.14998 96.3533 40.6841
  CHANNELS 6 Xposition Yposition Zposition Zrotation Xrotation Yrotation
  JOINT RightUpLeg
  {
    OFFSET -8.9458 -8.66707 0.101652
    CHANNELS 3 Zrotation Xrotation Yrotation
    JOINT RightLeg
    {
      OFFSET 0 -44.4227 1.3727
      CHANNELS 3 Zrotation Xrotation Yrotation
      JOINT RightFoot
      {
        OFFSET 0.253549 -42.0924 -1.46059
        CHANNELS 3 Zrotation Xrotation Yrotation
        JOINT RightToes
        {
          OFFSET 0.04 -4.41509 8.4991
          CHANNELS 3 Zrotation Xrotation Yrotation
          End Site
          {
            OFFSET -0.08 -0.137448 9.77979
          }
        }
      }
    }
  }
  JOINT Spine
  {
    OFFSET 0 11.8905 0
    CHANNELS 3 Zrotation Xrotation Yrotation
    JOINT Spine1
    {
      OFFSET 0 25.6574 0.127663
      CHANNELS 3 Zrotation Xrotation Yrotation
      JOINT HEad
      {
        OFFSET 0 8.73416 0.011341
        CHANNELS 3 Zrotation Xrotation Yrotation
        End Site
        {
          OFFSET -0.29 12.7742 2.51395
        }
      }
      JOINT LeftShoulder1
      {
        OFFSET 8.99 -0.362252 -0.22
        CHANNELS 3 Zrotation Xrotation Yrotation
        JOINT LeftArm
        {
          OFFSET 10.2827 -0.00338 0.322123
          CHANNELS 3 Zrotation Xrotation Yrotation
          JOINT LeftForeArm
          {
            OFFSET 32.7669 0.099144 -1.42434
            CHANNELS 3 Zrotation Xrotation Yrotation
            JOINT LeftHand
            {
              OFFSET 27.5643 0.085362 1.02216
              CHANNELS 3 Zrotation Xrotation Yrotation
              End Site
              {
                OFFSET 16.7443 -0.6 1.50291
              }
            }
          }
        }
      }
      JOINT RightShoulder
      {
        OFFSET -8.99 -0.362252 -0.22
        CHANNELS 3 Zrotation Xrotation Yrotation
        JOINT RightArm
        {
          OFFSET -10.2827 -0.00338 0.322123
          CHANNELS 3 Zrotation Xrotation Yrotation
          JOINT RightForeArm
          {
            OFFSET -32.8971 0.099144 -1.42434
            CHANNELS 3 Zrotation Xrotation Yrotation
            JOINT RightHand
            {
              OFFSET -27.4921 0.085362 1.02216
              CHANNELS 3 Zrotation Xrotation Yrotation
              End Site
              {
                OFFSET -16.6312 -0.6 1.50291
              }
            }
          }
        }
      }
    }
  }
  JOINT LeftUpLeg
  {
    OFFSET 8.9458 -8.66707 0.101652
    CHANNELS 3 Zrotation Xrotation Yrotation
    JOINT LeftLeg
    {
      OFFSET 0 -44.4227 1.3727
      CHANNELS 3 Zrotation Xrotation Yrotation
      JOINT LeftFoot
      {
        OFFSET -0.253549 -42.0924 -1.46059
        CHANNELS 3 Zrotation Xrotation Yrotation
        JOINT LeftToes
        {
          OFFSET -0.04 -4.41509 8.4991
          CHANNELS 3 Zrotation Xrotation Yrotation
          End Site
          {
            OFFSET 0.08 -0.047448 9.77979
          }
        }
      }
    }
  }
}
MOTION
Frames:	22
Frame Time:	0.0166667
10.0111 88.9648 31.6699 -1.68493 4.96886 166.261 -26.6424 -27.6883 11.5072 6.89154 42.4531 1.52822 16.0109 14.1364 -3.07802 -17.5566 -48.2342 -6.142 3.43438 7.49861 -3.71111 -1.64159 14.1612 -6.0011 14.3316 0.24868 -18.027 -7.95139e-016 1.59028e-015 -0 -80.3253 -8.53356 -39.6853 -16.0443 45.9146 -115.124 6.54677 9.62745 -1.04006 24.8735 -2.46587 -11.5439 62.7683 -18.2082 46.5804 -24.7099 14.6764 145.824 -6.94897 11.0797 -26.1325 21.3356 -4.25234 -6.39465 -24.3681 43.5325 12.2342 -11.1682 25.4828 3.06235 69.1086 -58.8735 52.8307 
9.15816 88.2655 31.2228 -2.13981 5.86522 162.057 -26.789 -29.6284 10.6084 4.29511 43.1979 6.5752 17.3898 14.8076 -3.44161 -17.3489 -50.0068 -5.0039 4.08172 7.97186 -3.5667 -0.409465 14.9376 -5.68873 12.5728 0.0322969 -16.4856 -2.38542e-015 -3.18055e-015 6.36111e-015 -81.5221 -14.1173 -35.7546 -16.626 47.658 -116.878 6.54677 9.62745 -1.04006 24.5125 -2.32447 -11.1345 60.7598 -12.997 46.2459 -24.8702 12.9915 145.494 -6.29931 10.9776 -26.5574 19.4192 -3.02524 -7.03543 -25.9681 44.8489 13.6371 -12.9163 26.8446 3.71974 75.2187 -58.6909 59.1531 
8.32259 87.6735 30.5704 -2.5159 6.52203 157.365 -26.6076 -31.8106 9.80849 1.79458 43.5374 11.2681 17.9643 15.0436 -3.59164 -16.548 -50.7844 -3.48724 4.83405 8.40765 -3.46805 1.16152 15.6405 -5.54185 10.7189 0.209135 -14.8025 -7.95139e-016 -1.59028e-015 3.18055e-015 -82.1105 -20.1465 -30.7598 -17.2731 49.2628 -118.302 6.54677 9.62745 -1.04006 23.8521 -2.16546 -10.7423 58.3738 -7.3745 47.167 -24.9792 11.7901 144.361 -5.11175 10.7678 -27.0666 17.2736 -1.73852 -7.41346 -27.4605 45.8291 15.1088 -14.3416 27.3032 4.20933 78.99 -58.2565 63.1961 
7.57505 87.1859 29.7565 -2.87042 6.80845 152.578 -26.1787 -34.1484 9.24767 -0.218783 43.5425 15.1969 17.7527 14.7835 -3.51036 -15.2424 -50.5275 -1.69389 5.695 8.79696 -3.4615 3.04165 16.264 -5.67165 8.84795 0.410284 -13.1369 1.59028e-015 0 3.18055e-015 -81.7202 -26.0705 -24.7977 -17.9043 50.5175 -119.282 6.54677 9.62745 -1.04006 22.9328 -1.98063 -10.3088 55.7088 -1.92041 49.2329 -24.9399 10.8709 142.886 -3.0719 10.3825 -27.9454 15.073 -0.689876 -7.11797 -28.6207 46.6117 16.6896 -14.935 27.143 4.37228 80.6019 -57.7148 65.2217 
6.98348 86.8022 28.8569 -3.27431 6.71004 148.065 -25.5997 -36.5478 8.91049 -1.6179 43.4074 18.2422 16.9374 14.0016 -3.23764 -13.5627 -49.1893 0.23403 6.64586 9.15927 -3.55397 5.14031 16.8459 -6.09379 7.17601 0.270516 -11.5741 5.56597e-015 4.77083e-015 3.18055e-015 -80.1393 -31.2502 -18.1008 -18.4525 51.2801 -119.776 6.54677 9.62745 -1.04006 21.8919 -1.78408 -9.83204 52.8172 2.9147 52.154 -24.7806 9.99271 141.501 -0.260655 9.79845 -29.1744 13.0109 -0.076287 -6.2065 -29.5006 47.2262 18.5608 -14.5049 26.8091 4.19881 80.5234 -56.9469 65.8838 
6.6002 86.5172 27.9632 -3.77554 6.324 144.099 -24.9482 -38.8956 8.72073 -2.52441 43.2902 20.4644 15.865 12.9753 -2.89693 -11.8446 -47.2015 2.03848 7.62055 9.5178 -3.70875 7.2779 17.424 -6.71214 6.01918 -0.364824 -10.0512 2.38542e-015 -6.36111e-015 -3.18055e-015 -77.4377 -35.1042 -11.1997 -18.9099 51.4903 -119.736 6.54677 9.62745 -1.04006 20.9574 -1.60842 -9.37209 49.8232 6.88611 55.4884 -24.6314 9.0191 140.48 2.84654 9.08194 -30.4368 11.2448 0.0653982 -5.04879 -30.319 47.6244 20.8858 -13.1948 26.6307 3.78055 79.2933 -55.9167 65.7411 
6.45442 86.315 27.1625 -4.38758 5.80475 140.824 -24.2675 -41.0785 8.64087 -3.16549 43.2573 21.9953 14.8646 12.2005 -2.61953 -10.4704 -45.4825 3.50526 8.51594 9.86967 -3.86096 9.22755 17.9905 -7.35718 5.5616 -1.36294 -8.36261 -7.95139e-016 -3.18055e-015 -9.54166e-015 -74.0521 -37.2959 -4.98737 -19.3374 51.1516 -119.075 6.54677 9.62745 -1.04006 20.3348 -1.46701 -8.93722 47.0043 9.89214 58.6664 -24.6083 7.98044 139.925 5.60376 8.39451 -31.3737 9.84346 -0.165583 -4.00907 -31.2117 47.786 23.5863 -11.3692 26.6704 3.23363 77.3733 -54.803 65.0449 
6.5481 86.1682 26.5234 -5.08232 5.32299 138.282 -23.5708 -42.9759 8.70045 -3.78592 43.3065 23.0365 14.1381 12.0932 -2.47988 -9.65449 -45.0149 4.62182 9.22283 10.1902 -3.94323 10.7899 18.5095 -7.85094 5.67575 -2.419 -6.34536 5.96354e-015 5.1684e-015 3.18055e-015 -70.6798 -37.8294 -0.47353 -19.774 50.304 -117.767 6.54677 9.62745 -1.04006 20.1109 -1.35476 -8.50031 44.7374 11.9357 61.1137 -24.729 7.05635 139.804 7.4052 7.93503 -31.7587 8.78038 -0.588181 -3.25307 -32.1109 47.7902 26.2977 -9.42699 26.7382 2.65394 75.0393 -53.8742 63.77 
6.85275 86.0429 26.0918 -5.76021 5.03882 136.49 -22.879 -44.4133 8.93975 -4.54355 43.3954 23.7554 13.8242 12.8898 -2.5159 -9.42661 -46.5401 5.54911 9.67124 10.4651 -3.92411 11.8665 18.9739 -8.09048 5.95579 -3.27218 -4.06952 -1.19271e-015 2.98177e-015 -0 -67.996 -37.0062 1.67565 -20.146 49.0294 -115.988 6.54677 9.62745 -1.04006 20.265 -1.28038 -8.12704 43.3394 13.1104 62.4693 -24.8929 6.50358 139.985 7.86508 7.84417 -31.4927 8.00277 -0.985266 -2.78948 -32.8636 47.7948 28.5837 -7.59362 26.5516 2.09048 72.3624 -53.2826 61.7954 
7.31483 85.9138 25.8881 -6.26448 5.04581 135.511 -22.2855 -45.2037 9.32379 -5.35459 43.5198 24.091 13.9481 14.6315 -2.73846 -9.71144 -50.2251 6.40831 9.86994 10.7004 -3.83312 12.4888 19.4089 -8.1053 5.9352 -3.84215 -1.80572 7.25564e-015 -2.08724e-015 -0 -66.4073 -35.3278 1.43246 -20.3714 47.5313 -114.051 6.54677 9.62745 -1.04006 20.7241 -1.27504 -7.98704 42.9112 13.5617 62.7077 -24.9194 6.54984 140.28 6.89076 8.14465 -30.5446 7.50417 -1.1808 -2.60215 -33.3771 47.9647 30.1767 -5.88962 25.9023 1.55115 69.2988 -52.9995 59.0579 
7.87338 85.7752 25.9057 -6.48557 5.29888 135.43 -21.9395 -45.3205 9.73401 -5.89908 43.8191 23.7875 14.2755 16.9565 -3.07714 -10.4143 -55.1591 7.01173 9.90179 10.8973 -3.73609 12.7733 19.8082 -8.01976 5.32479 -4.19367 0.182031 -1.88845e-015 6.85807e-015 -3.18055e-015 -66.0075 -33.3439 -0.683556 -20.4578 46.1155 -112.276 6.54677 9.62745 -1.04006 21.3806 -1.36675 -8.21821 43.3167 13.4458 62.0666 -24.6468 7.28837 140.473 4.61918 8.7498 -28.897 7.33091 -1.16076 -2.67472 -33.6179 48.4261 31.0228 -4.30401 24.7536 1.05016 65.883 -52.8975 55.6681 
8.47656 85.6329 26.1197 -6.44793 5.62251 136.243 -21.9256 -44.9804 10.0577 -5.85768 44.4939 22.6508 14.466 19.1978 -3.38763 -11.5651 -59.8378 6.89518 9.87044 11.0363 -3.68632 12.8312 20.1094 -7.95289 4.12402 -4.42736 1.79032 -1.98785e-016 3.37934e-015 -6.36111e-015 -66.6949 -31.4867 -3.92274 -20.4677 45.073 -110.945 6.54677 9.62745 -1.04006 22.0965 -1.55053 -8.80328 44.3569 12.8662 60.8471 -24.015 8.6562 140.421 1.40252 9.48738 -26.5488 7.54418 -1.11023 -2.94012 -33.6076 49.2287 31.2379 -2.88196 23.2744 0.620016 62.3517 -52.8151 51.9988 
9.08648 85.4891 26.5042 -6.27058 5.8409 137.794 -22.2055 -44.4834 10.2483 -5.12967 45.5668 20.6932 14.4167 20.9397 -3.5851 -13.1901 -63.418 5.86608 9.82902 11.0988 -3.69682 12.6944 20.2561 -7.94519 2.58346 -4.6328 3.05219 -3.97569e-016 7.15625e-015 -9.54166e-015 -68.2681 -29.9889 -7.6089 -20.4801 44.6062 -110.256 6.54677 9.62745 -1.04006 22.7404 -1.78242 -9.57072 45.928 11.8186 59.2539 -23.0745 10.4881 140.147 -2.18422 10.1441 -23.6407 8.15405 -1.28565 -3.27369 -33.4627 50.344 31.0558 -1.72011 21.7066 0.293076 58.9724 -52.5863 48.509 
9.67982 85.3465 27.0353 -6.04106 5.90089 139.845 -22.6661 -43.9763 10.2547 -3.90284 46.8315 18.1463 14.2602 22.2341 -3.69972 -15.0042 -66.0069 4.37658 9.76557 11.0955 -3.74695 12.3268 20.266 -7.96374 1.07246 -4.88063 3.99393 4.37326e-015 -3.57812e-015 -6.36111e-015 -70.4505 -28.851 -11.3386 -20.5459 44.7691 -110.252 6.54677 9.62745 -1.04006 23.2369 -2.00166 -10.2969 47.9892 10.2091 57.3751 -21.9499 12.5739 139.834 -5.51169 10.5716 -20.5485 9.08686 -1.82766 -3.58283 -33.3479 51.7056 30.7141 -1.00579 20.1934 0.106509 55.8042 -52.0971 45.4083 
10.2498 85.2185 27.6823 -5.74113 5.86614 142.199 -23.1739 -43.3835 9.9674 -2.5482 48.0301 15.3793 14.0884 23.3142 -3.78171 -16.5888 -68.0706 3.085 9.65586 11.0637 -3.80703 11.7087 20.2199 -7.95415 -0.0865344 -5.1851 4.54571 -4.77083e-015 -2.38542e-015 -3.18055e-015 -72.9198 -27.8405 -15.0121 -20.6343 45.4242 -110.813 6.54677 9.62745 -1.04006 23.5745 -2.16139 -10.8168 50.4624 7.911 55.2618 -20.7913 14.715 139.715 -8.15188 10.7613 -17.7527 10.2375 -2.68881 -3.88548 -33.3463 53.2324 30.3229 -0.972188 18.8253 0.0950337 52.8459 -51.3743 42.69 
10.7966 85.1221 28.4102 -5.29489 5.83332 144.737 -23.6105 -42.5472 9.32863 -1.34848 48.9927 12.6828 13.8275 24.3529 -3.83078 -17.8097 -69.9566 2.23333 9.49664 11.0422 -3.85048 10.8834 20.2052 -7.86834 -0.745098 -5.48617 4.59753 -2.38542e-015 -1.59028e-015 3.18055e-015 -75.3832 -26.6139 -18.7002 -20.6477 46.2923 -111.719 6.54677 9.62745 -1.04006 23.7661 -2.24545 -11.0803 53.223 4.83605 53.0221 -19.7288 16.7892 139.967 -10.0025 10.8018 -15.5851 11.5218 -3.71586 -4.23602 -33.3739 54.8325 29.8316 -1.75456 17.7615 0.26524 50.3355 -50.6377 40.4273 
11.3061 85.069 29.1922 -4.65668 5.86894 147.378 -23.9172 -41.3922 8.4218 -0.31041 49.652 10.1423 13.3121 25.3731 -3.79917 -18.9566 -71.6858 1.45423 9.29649 11.0508 -3.85871 9.93524 20.271 -7.67809 -0.927507 -5.68659 4.09554 3.18055e-015 -1.11319e-014 -0 -77.6348 -24.9119 -22.4745 -20.5018 47.0824 -112.72 6.54677 9.62745 -1.04006 23.8153 -2.26542 -11.1412 56.1606 1.02371 50.8456 -18.8365 18.7744 140.623 -11.2476 10.786 -14.0787 12.8738 -4.7498 -4.62954 -33.1873 56.3659 29.0986 -3.26609 17.2845 0.588457 48.8826 -50.2843 38.994 
11.7471 85.0731 30.0097 -3.84594 5.98984 150.07 -24.1255 -39.9483 7.40487 0.781547 49.9971 7.70481 12.4281 26.2264 -3.63081 -20.5438 -72.9523 0.0316975 9.05951 11.0819 -3.83247 8.95565 20.4083 -7.40152 -0.73149 -5.70291 3.07178 -3.18055e-015 -6.36111e-015 -0 -79.555 -22.6697 -26.3119 -20.1897 47.6043 -113.589 6.54677 9.62745 -1.04006 23.7267 -2.24949 -11.1093 59.1876 -3.30989 48.9526 -18.1043 20.7142 141.557 -12.2246 10.7624 -13.0107 14.2254 -5.64748 -5.00733 -32.4013 57.5926 27.929 -5.17229 17.7962 1.02189 49.4224 -50.7848 39.1157 
12.089 85.1643 30.8417 -2.9345 6.17214 152.775 -24.3165 -38.2807 6.42877 2.16643 49.9909 5.29111 11.2168 26.7254 -3.31656 -22.8298 -73.3805 -2.46842 8.77067 11.1092 -3.78983 8.0162 20.5681 -7.09988 -0.256625 -5.50313 1.63278 0 0 -0 -81.0968 -20.0022 -30.0882 -19.7781 47.8068 -114.171 6.54677 9.62745 -1.04006 23.5582 -2.23633 -11.115 62.1631 -7.79662 47.5566 -17.4431 22.6557 142.518 -13.2695 10.7372 -12.0516 15.4994 -6.26007 -5.30933 -30.6034 58.1824 26.1456 -7.0011 19.6027 1.52678 52.8177 -52.3489 41.5768 
12.3131 85.3923 31.6607 -2.01656 6.37277 155.427 -24.5289 -36.434 5.61563 3.8813 49.5119 2.91071 9.8611 26.7903 -2.91279 -25.331 -72.7587 -5.60738 8.39818 11.1087 -3.74978 7.15012 20.6997 -6.83752 0.417485 -5.10574 -0.0597225 1.59028e-015 3.18055e-015 6.36111e-015 -82.2721 -17.1212 -33.6173 -19.3545 47.7387 -114.408 6.54677 9.62745 -1.04006 23.434 -2.26072 -11.253 64.8642 -12.0336 46.8156 -16.7463 24.5938 143.211 -14.5943 10.6873 -10.8924 16.6267 -6.43193 -5.54793 -27.7097 57.7863 23.8175 -8.29854 22.5689 2.03333 59.1397 -54.5706 46.5543 
12.4097 85.8217 32.4405 -1.19121 6.53911 157.913 -24.7217 -34.451 5.04533 5.66273 48.4146 0.768933 8.56815 26.3726 -2.49353 -27.0202 -70.9186 -8.34169 7.91831 11.0676 -3.72208 6.34904 20.7661 -6.65016 1.24569 -4.54632 -1.82329 1.59028e-015 -4.77083e-015 -1.59028e-014 -83.1131 -14.2327 -36.7001 -18.9601 47.4709 -114.357 6.54677 9.62745 -1.04006 23.4621 -2.33217 -11.5233 67.0975 -15.7291 46.7391 -15.9629 26.4497 143.452 -16.1909 10.575 -9.36869 17.5564 -6.06708 -5.8528 -24.2355 56.1613 21.3365 -8.78263 25.9756 2.40494 66.9819 -56.6436 52.8945 
12.375 86.5139 33.1623 -0.563791 6.60294 160.114 -24.8351 -32.4335 4.73831 7.09671 46.6499 -0.786306 7.48252 25.3404 -2.10867 -27.0204 -67.4967 -9.84305 7.33295 10.9788 -3.70568 5.57049 20.737 -6.53636 2.2113 -3.87387 -3.48899 -1.59028e-015 6.36111e-015 -6.36111e-015 -83.6311 -11.473 -39.1856 -18.5646 47.0433 -114.163 6.54677 9.62745 -1.04006 23.657 -2.43989 -11.8737 68.8133 -18.7375 47.156 -15.1299 28.0929 143.296 -17.8038 10.3814 -7.57642 18.2328 -5.21408 -6.40084 -21.0024 53.2868 19.0578 -8.53962 28.7893 2.53037 73.7668 -58.061 58.3504 
